<svg id="visual" viewBox="0 0 900 600" width="900" height="600" xmlns="http://www.w3.org/2000/svg" xmlns:xlink="http://www.w3.org/1999/xlink" version="1.1"><rect x="0" y="0" width="900" height="600" fill="#FFFFFF"></rect><path d="M0 156L21.5 163.2C43 170.3 86 184.7 128.8 191.5C171.7 198.3 214.3 197.7 257.2 182.8C300 168 343 139 385.8 130.5C428.7 122 471.3 134 514.2 142.3C557 150.7 600 155.3 642.8 159.7C685.7 164 728.3 168 771.2 159C814 150 857 128 878.5 117L900 106L900 0L878.5 0C857 0 814 0 771.2 0C728.3 0 685.7 0 642.8 0C600 0 557 0 514.2 0C471.3 0 428.7 0 385.8 0C343 0 300 0 257.2 0C214.3 0 171.7 0 128.8 0C86 0 43 0 21.5 0L0 0Z" fill="#f3e5d8" stroke-linecap="round" stroke-linejoin="miter"></path></svg>